# xmcd
#
# Track frame offsets:
#	150
#	16917
#	35485
#	50603
#	67970
#	84212
#	97079
#	115721
#	132939
#	147681
#	161974
#	178216
#	193559
#	209876
#	227168
#	246410
#	263853
#	279721
#	293789
#
# Disc length: 4039 seconds
#
# Revision: 1
# Processed by: cddbd v1.5.2PL0 Copyright (c) Steve Scherf et al.
# Submitted via: audiograbber 1.83.01
#
DISCID=2b0fc513
DTITLE=Various Artist - Promo Only Country Radio June 2007
DYEAR=2007
DGENRE=Country
TTITLE0=Trace Adkins - I Wanna Feel Something (The Single Mix)
TTITLE1=Bon Jovi - (You Want To) Make A Memory
TTITLE2=Bomshel - Bomshel Stomp
TTITLE3=Jason Michael Carroll - Livin' Our Love Song
TTITLE4=Clay Walker - Fall
TTITLE5=Ty England - The Perfect Girl
TTITLE6=Heartland - Let's Get Dirty
TTITLE7=Carmen Rasmussen  - Nothin' Like Thf Summer
TTITLE8=Donovan Chapman - All I Need
TTITLE9=Lee Brice - She Ain't Right
TTITLE10=Shanwn King and Willie Nelson - I Give
TTITLE11=Van Zant - That Scares Me
TTITLE12=Megan Mullins - Cryin' Days
TTITLE13=Jamie Slocum - Say Hello To Heaven
TTITLE14=Kristina Cornell - Little Red Balloon
TTITLE15=Ty Herndon - Mighty Mighty Love
TTITLE16=Lisa Dames - I'd Leave Me
TTITLE17=Tim Murphy - Burn Me Down
TTITLE18=Gina D - Sounds Are AlL Around Us
EXTD=
EXTT0=
EXTT1=
EXTT2=
EXTT3=
EXTT4=
EXTT5=
EXTT6=
EXTT7=
EXTT8=
EXTT9=
EXTT10=
EXTT11=
EXTT12=
EXTT13=
EXTT14=
EXTT15=
EXTT16=
EXTT17=
EXTT18=
PLAYORDER=
